<?xml version="1.0" encoding="UTF-8" standalone="no"?>
<!DOCTYPE svg PUBLIC "-//W3C//DTD SVG 1.1//EN" "http://www.w3.org/Graphics/SVG/1.1/DTD/svg11.dtd">
<svg width="100%" height="100%" viewBox="0 0 1080 1080" version="1.1" xmlns="http://www.w3.org/2000/svg" xmlns:xlink="http://www.w3.org/1999/xlink" xml:space="preserve" xmlns:serif="http://www.serif.com/" style="fill-rule:evenodd;clip-rule:evenodd;stroke-linejoin:round;stroke-miterlimit:2;">
    <g transform="matrix(1.523737,0,0,1.523737,-285.729056,-105.362579)">
        <path d="M413.743,566.954C443.3,601.188 486.057,623.683 534.059,626.471L534.059,683.064C429.372,678.494 342.845,603.343 320.801,503.998L303.535,503.998C301.095,507.946 296.728,510.579 291.751,510.579C284.111,510.579 277.909,504.376 277.909,496.737C277.909,489.097 284.111,482.895 291.751,482.895C296.77,482.895 301.168,485.571 303.595,489.573L318.084,489.573C316.752,480.993 315.896,472.256 315.544,463.39L263.229,463.39C263.229,463.39 260.264,463.512 260.264,458.408C260.264,454.044 263.229,453.913 263.229,453.913L315.361,453.913C315.368,447.546 315.634,441.24 316.15,435.004L345.52,435.004L334.787,424.022L290.282,424.022C288.004,428.547 283.317,431.655 277.909,431.655C270.269,431.655 264.067,425.452 264.067,417.813C264.067,410.173 270.269,403.971 277.909,403.971C283.341,403.971 288.046,407.107 290.312,411.665L319.286,411.706C327.32,368.823 347.301,330.135 375.629,299.245L415.607,339.222C388.418,369.698 371.862,409.885 371.803,453.913L430.037,453.913C431.911,448.49 437.065,444.59 443.123,444.59C450.762,444.59 456.965,450.793 456.965,458.432C456.965,466.072 450.762,472.274 443.123,472.274C439.825,472.274 436.796,471.119 434.417,469.191L399.609,503.998L379.112,503.998C382.376,514.838 386.677,525.229 391.898,535.056L475.839,535.056L475.839,448.897L557.237,448.897L557.237,365.041L624.286,365.041L739.054,250.83L677.888,225.838L859.742,164.014L795.945,345.868L771.281,287.99L664.344,396.983L591.594,396.983L591.594,480.467L507.738,480.467L507.738,566.954L413.743,566.954ZM375.443,489.573L391.736,489.573L417.92,463.39L355.202,463.39L344.784,473.808L372.911,473.808C373.515,479.14 374.363,484.399 375.443,489.573ZM443.123,488.156C450.762,488.156 456.965,494.359 456.965,501.998C456.965,509.638 450.762,515.84 443.123,515.84C435.483,515.84 429.281,509.638 429.281,501.998C429.281,494.359 435.483,488.156 443.123,488.156ZM237.921,444.59C245.561,444.59 251.763,450.793 251.763,458.432C251.763,466.072 245.561,472.274 237.921,472.274C230.281,472.274 224.079,466.072 224.079,458.432C224.079,450.793 230.281,444.59 237.921,444.59ZM247.602,411.653C251.351,411.653 254.394,414.696 254.394,418.444C254.394,422.192 251.351,425.236 247.602,425.236C243.854,425.236 240.811,422.192 240.811,418.444C240.811,414.696 243.854,411.653 247.602,411.653ZM260.554,490.415C264.303,490.415 267.346,493.458 267.346,497.207C267.346,500.955 264.303,503.998 260.554,503.998C256.806,503.998 253.763,500.955 253.763,497.207C253.763,493.458 256.806,490.415 260.554,490.415ZM389.945,284.948C428.313,249.853 478.641,227.655 534.059,225.236L534.059,281.829C494.222,284.142 457.997,300.029 429.932,324.935L389.945,284.948ZM554.291,225.236C604.072,227.409 649.747,245.542 686.335,274.648L646.049,314.933C620.046,295.812 588.5,283.816 554.291,281.829L554.291,225.236ZM742.46,339.796C761.875,373.459 772.988,412.515 772.988,454.15C772.988,513.516 750.395,567.639 713.356,608.359L673.369,568.372C700.234,537.928 716.547,497.932 716.547,454.15C716.547,428.257 710.841,403.688 700.621,381.636L742.46,339.796ZM699.099,622.714C660.645,658.178 610.043,680.63 554.291,683.064L554.291,626.471C594.461,624.138 630.959,608.004 659.122,582.737L699.099,622.714ZM520.851,493.378L579.902,493.378L520.851,552.429L520.851,493.378ZM602.445,407.669L664.344,407.669L641.238,480.944L637.273,436.979L602.445,471.806L602.445,407.669Z" style="fill:url(#_Radial1);"/>
    </g>
    <defs>
        <radialGradient id="_Radial1" cx="0" cy="0" r="1" gradientUnits="userSpaceOnUse" gradientTransform="matrix(635.662813,0,0,519.05005,224.078988,423.53928)"><stop offset="0" style="stop-color:rgb(2,105,150);stop-opacity:1"/><stop offset="0.45" style="stop-color:rgb(5,134,165);stop-opacity:1"/><stop offset="1" style="stop-color:rgb(45,193,179);stop-opacity:1"/></radialGradient>
    </defs>
</svg>
